<svg width="189" height="42" viewBox="0 0 189 42" fill="none" xmlns="http://www.w3.org/2000/svg">
<path d="M24.9271 21.6718C25.9548 22.7463 27.1227 24.1012 28.2205 25.6895C30.2294 28.5626 31.0003 31.062 30.6967 33.3044C30.393 35.5702 29.1783 37.6257 26.6789 39.3775C24.1562 41.1528 21.5401 41.8068 19.1108 41.363C16.6582 40.9425 14.2055 39.0973 12.0799 36.0841C11.0755 34.6592 10.3047 33.4211 9.7207 32.3233L24.9271 21.6484V21.6718ZM12.6405 33.2576C12.8974 33.8182 13.388 34.5658 13.9486 35.36C16.9384 39.6346 20.9562 40.2652 25.1373 37.3454C28.8046 34.7993 29.6688 31.132 26.7023 26.9041C25.9782 25.8763 25.3476 25.1522 24.8571 24.7084L12.6639 33.281L12.6405 33.2576Z" fill="url(#paint0_linear_984_670)"/>
<path d="M21.2367 19.8255C20.2089 18.751 19.0411 17.3962 17.9432 15.8078C15.9344 12.9347 15.1636 10.4355 15.4672 8.19306C15.7709 5.92729 16.9855 3.87166 19.4848 2.11978C22.0075 0.344542 24.6236 -0.309437 27.0529 0.134373C29.5055 0.554825 31.9582 2.40016 34.0838 5.4134C35.0882 6.83826 35.8591 8.07623 36.443 9.17407L21.2367 19.8489V19.8255ZM33.4999 8.23968C33.2429 7.67907 32.7524 6.93169 32.1918 6.1375C29.2019 1.86291 25.1843 1.23215 21.0032 4.15195C17.3359 6.69802 16.4717 10.3654 19.4382 14.5932C20.1623 15.621 20.7929 16.3451 21.2835 16.7889L33.4765 8.2163L33.4999 8.23968Z" fill="url(#paint1_linear_984_670)"/>
<path d="M25.5811 19.0319C26.4687 18.1677 27.5665 17.21 28.9447 16.1589C31.8411 13.9165 34.7375 12.8887 37.2135 13.2157C39.6661 13.5194 41.9552 14.9209 43.8472 17.3736C45.7159 19.8028 46.2766 22.1153 45.8795 24.3577C45.5058 26.6001 44.0341 28.7491 41.2545 30.898C39.7128 32.066 38.2179 33.0237 36.9098 33.7478L25.5811 19.0319ZM37.7507 30.828C38.3347 30.5477 39.1757 30.0571 40.1801 29.2863C44.2678 26.1329 44.5247 22.3723 41.7918 18.8452C38.6851 14.8042 34.6675 14.2202 30.533 17.3969C29.7856 17.9809 29.0847 18.5415 28.6642 19.0087L37.7507 30.8047V30.828Z" fill="url(#paint2_linear_984_670)"/>
<path d="M20.419 22.3017C19.5314 23.166 18.4335 24.1236 17.0554 25.1748C14.1589 27.4172 11.2625 28.445 8.78656 28.1179C6.33392 27.8143 4.04473 26.4128 2.1527 23.9602C0.284028 21.5309 -0.276562 19.2183 0.120531 16.9759C0.494265 14.7335 1.9658 12.5846 4.74545 10.4356C6.28711 9.26768 7.78215 8.31005 9.09023 7.58594L20.419 22.3017ZM8.24922 10.5057C7.66525 10.786 6.8244 11.2765 5.81999 12.0473C1.73227 15.2007 1.47532 18.9615 4.20825 22.4886C7.31492 26.5296 11.3326 27.1136 15.467 23.9368C16.2145 23.3529 16.9152 22.7923 17.3357 22.3251L8.24922 10.5291V10.5057Z" fill="url(#paint3_linear_984_670)"/>
<path d="M58.816 29L61.864 11.816H67.264C68.944 11.816 70.352 12.144 71.488 12.8C72.64 13.44 73.504 14.32 74.08 15.44C74.672 16.56 74.968 17.848 74.968 19.304C74.968 20.6 74.728 21.832 74.248 23C73.784 24.168 73.112 25.2 72.232 26.096C71.352 26.992 70.28 27.704 69.016 28.232C67.752 28.744 66.328 29 64.744 29H58.816ZM62.248 26.216H64.864C65.92 26.216 66.88 26.048 67.744 25.712C68.624 25.376 69.376 24.912 70 24.32C70.64 23.728 71.128 23.032 71.464 22.232C71.816 21.432 71.992 20.56 71.992 19.616C71.992 18.528 71.8 17.616 71.416 16.88C71.032 16.144 70.464 15.584 69.712 15.2C68.976 14.8 68.04 14.6 66.904 14.6H64.312L62.248 26.216ZM76.7341 22.808L77.1661 20.312H85.1581L84.7261 22.808H76.7341ZM92.1992 29.384C91.2713 29.384 90.4073 29.208 89.6073 28.856C88.8073 28.488 88.1353 27.944 87.5913 27.224C87.0633 26.504 86.7033 25.616 86.5113 24.56L89.3193 23.432C89.3673 24.024 89.5193 24.56 89.7753 25.04C90.0473 25.52 90.4153 25.904 90.8793 26.192C91.3433 26.464 91.8953 26.6 92.5353 26.6C93.1113 26.6 93.6393 26.496 94.1193 26.288C94.5993 26.08 94.9833 25.784 95.2713 25.4C95.5753 25.016 95.7273 24.56 95.7273 24.032C95.7273 23.616 95.6313 23.248 95.4393 22.928C95.2633 22.608 94.9673 22.312 94.5513 22.04C94.1353 21.768 93.5833 21.504 92.8953 21.248L92.0073 20.888C91.3993 20.664 90.8233 20.36 90.2793 19.976C89.7513 19.592 89.3193 19.112 88.9833 18.536C88.6633 17.944 88.5033 17.232 88.5033 16.4C88.5033 15.456 88.7673 14.608 89.2953 13.856C89.8233 13.104 90.5353 12.512 91.4313 12.08C92.3433 11.648 93.3593 11.432 94.4793 11.432C95.6473 11.432 96.5913 11.632 97.3113 12.032C98.0473 12.432 98.5993 12.912 98.9673 13.472C99.3353 14.032 99.5673 14.568 99.6633 15.08L96.9273 16.088C96.8633 15.752 96.7273 15.44 96.5193 15.152C96.3113 14.848 96.0233 14.608 95.6553 14.432C95.2873 14.24 94.8073 14.144 94.2153 14.144C93.7353 14.144 93.2793 14.232 92.8473 14.408C92.4313 14.568 92.0953 14.808 91.8393 15.128C91.5833 15.432 91.4553 15.816 91.4553 16.28C91.4553 16.664 91.5433 17 91.7193 17.288C91.8953 17.56 92.1673 17.808 92.5353 18.032C92.9033 18.256 93.3593 18.472 93.9033 18.68L94.9113 19.064C95.6633 19.336 96.3193 19.68 96.8793 20.096C97.4553 20.512 97.9033 21.016 98.2233 21.608C98.5433 22.2 98.7032 22.896 98.7032 23.696C98.7032 24.816 98.4233 25.8 97.8633 26.648C97.3193 27.496 96.5593 28.168 95.5833 28.664C94.6073 29.144 93.4793 29.384 92.1992 29.384ZM100.769 29L103.817 11.816H106.745L103.697 29H100.769ZM103.697 21.608L104.177 18.824H114.473L113.993 21.608H103.697ZM111.353 29L114.401 11.816H117.329L114.281 29H111.353ZM118.113 29L121.161 11.816H124.089L121.041 29H118.113ZM124.863 29L127.911 11.816H138.567L138.087 14.6H130.359L127.791 29H124.863ZM127.719 21.992L128.223 19.208H136.503L136.023 21.992H127.719ZM142.193 29L145.001 13.328H147.929L145.121 29H142.193ZM139.937 14.6L140.441 11.816H152.969L152.489 14.6H139.937ZM152.379 29L155.427 11.816H158.355L155.307 29H152.379ZM159.129 29L162.177 11.816H172.833L172.353 14.6H164.625L162.057 29H159.129ZM161.985 21.992L162.489 19.208H170.769L170.289 21.992H161.985ZM176.71 29L178.342 19.736H181.27L179.638 29H176.71ZM173.95 11.816H177.334L179.95 17.888H180.118L184.774 11.816H188.374L181.054 21.032H178.102L173.95 11.816Z" fill="#004080"/>
<defs>
<linearGradient id="paint0_linear_984_670" x1="9.7207" y1="31.5758" x2="30.7434" y2="31.5758" gradientUnits="userSpaceOnUse">
<stop stop-color="#004080"/>
<stop offset="1" stop-color="#43B5B7" stop-opacity="0"/>
</linearGradient>
<linearGradient id="paint1_linear_984_670" x1="15.3972" y1="9.92155" x2="36.443" y2="9.92155" gradientUnits="userSpaceOnUse">
<stop stop-color="#004080"/>
<stop offset="1" stop-color="#43B5B7" stop-opacity="0"/>
</linearGradient>
<linearGradient id="paint2_linear_984_670" x1="25.5811" y1="23.4467" x2="45.9963" y2="23.4467" gradientUnits="userSpaceOnUse">
<stop stop-color="#004080"/>
<stop offset="1" stop-color="#43B5B7" stop-opacity="0"/>
</linearGradient>
<linearGradient id="paint3_linear_984_670" x1="0.00373735" y1="17.887" x2="20.419" y2="17.887" gradientUnits="userSpaceOnUse">
<stop stop-color="#004080"/>
<stop offset="1" stop-color="#43B5B7" stop-opacity="0"/>
</linearGradient>
</defs>
</svg>
